<svg xmlns="http://www.w3.org/2000/svg" viewBox="0 0 433.44828 138.62069"><path d="M1.01325,3.81788c14.97247-.374,32.79982-.60357,47.77416-.66362L49.848,3.1476l.32315,1.081c8.056,27.046,16.51184,56.789,24.04131,84.09466l-2.152-1.79907C85.464,87.63841,98.85269,88.92,112.24619,90.14744c39.62079,3.76831,80.90593,7.98607,120.35406,13.14933-54.01047-2.651-108.85206-7.12352-162.68669-12.0398C62.34625,63.32561,54.32572,32.98921,47.35524,4.999l1.38347,1.07419C33.78563,5.51568,15.95247,4.69213,1.01325,3.81788Z" fill="#fff"/><circle cx="91.83247" cy="118.65145" r="8.98795" fill="#fff"/><circle cx="218.8373" cy="127.63941" r="8.98795" fill="#fff"/><path d="M169.29978,42.789a14.08532,14.08532,0,0,0-6.20166-1.18457q-6.79468,0-8.61084,4.50293h17.37988A4.0074,4.0074,0,0,0,169.29978,42.789Z" fill="#fff"/><path d="M67.06656,14.95836q7.56079,29.44739,15.12152,58.89471,72.81775,6.76511,145.63562,13.53015,11.36445-42.695,22.72888-85.38989Q158.80961,8.4758,67.06656,14.95836Zm67.6712,59.35217H120.91257V27.14744h-17.6958V15.61326h49.21679V27.14744h-17.6958ZM184.5864,55.9824l-30.25733-.0791a6.93956,6.93956,0,0,0,3.08106,5.17481,10.96039,10.96039,0,0,0,2.80468,1.30371,13.33925,13.33925,0,0,0,3.35743.55273,7.848,7.848,0,0,0,2.92285-.39551,8.29378,8.29378,0,0,0,2.37012-1.18457,15.72981,15.72981,0,0,0,1.69873-1.46191,8.871,8.871,0,0,0,1.0664-1.22363,2.21282,2.21282,0,0,0,.31592-.55371l10.90186,5.60937a19.79608,19.79608,0,0,1-7.979,7.93945,22.538,22.538,0,0,1-11.771,2.80469,22.97059,22.97059,0,0,1-14.14063-4.74023q-7.66406-6.082-7.66309-16.98535a20.56738,20.56738,0,0,1,4.898-13.90332q6.16187-7.26856,16.98487-7.26856a25.15087,25.15087,0,0,1,7.22851,1.02734,18.91894,18.91894,0,0,1,6.16211,3.12012,21.01222,21.01222,0,0,1,4.66113,4.97754,20.34459,20.34459,0,0,1,2.84375,6.794A27.15007,27.15007,0,0,1,184.5864,55.9824Zm44.87109,18.09082h-3.51514q-2.01489,0-4.14746.04-2.13354.041-3.63427.0791a8.699,8.699,0,0,0-1.6587.11817,17.80483,17.80483,0,0,1-2.40966-3.23926q-2.25147-3.31787-4.81885-7.18848-2.5686-3.8701-3.12061-4.50293l-4.66113,4.02833-.1582,11.06054-12.08692-.1582V15.69236h12.08692l-.07862,32.15333,15.24707-15.958,14.93067.0791L215.00046,51.24217l15.87939,22.91016C230.93161,74.10057,230.45749,74.07322,229.45749,74.07322Z" fill="#fff"/><path d="M291.78757,30.5449a21.36337,21.36337,0,0,0-4.26563.43457,21.87458,21.87458,0,0,0-4.10742,1.26368,14.19994,14.19994,0,0,0-3.5957,2.17285,10.57848,10.57848,0,0,0-2.56738,3.08008,12.18466,12.18466,0,0,0-5.4502-5.41114,17.51325,17.51325,0,0,0-8.2168-1.93554,38.86639,38.86639,0,0,0-4.85839.27636,19.38377,19.38377,0,0,0-4.97706,1.46192A13.14217,13.14217,0,0,0,249.0488,35.166a18.72251,18.72251,0,0,0-3.35791,5.96484,28.57619,28.57619,0,0,0-1.61914,9.24317l.0791,24.09472h11.84961V50.2158a10.02394,10.02394,0,0,1,.55322-3.47656,6.03042,6.03042,0,0,1,1.54053-2.40918,6.63513,6.63513,0,0,1,2.37012-1.38281,9.59856,9.59856,0,0,1,3.12011-.47364,6.62472,6.62472,0,0,1,5.13575,1.89551q1.73583,1.897,1.7373,5.84668V74.31053l12.64063.1582V50.2158q0-7.74169,7.10937-7.74219a7.10943,7.10943,0,0,1,5.25391,2.05372,8.00672,8.00672,0,0,1,1.85742,5.68847l.1582,24.25293H309.563V47.76658a16.02663,16.02663,0,0,0-5.332-12.32422A17.81858,17.81858,0,0,0,291.78757,30.5449Z" fill="#fff"/><path d="M356.52878,39.82713a16.70967,16.70967,0,0,0-3.43652-4.22656,18.58566,18.58566,0,0,0-4.06836-2.80469,19.94785,19.94785,0,0,0-4.582-1.54,41.24019,41.24019,0,0,0-4.582-.751q-2.01415-.19628-4.542-.19726a21.34932,21.34932,0,0,0-10.78418,2.92285,22.65816,22.65816,0,0,0-8.25488,8.21582,22.375,22.375,0,0,0-3.16016,11.69238q0,9.63868,5.84571,15.68164a19.4991,19.4991,0,0,0,14.61523,6.043,23.98772,23.98772,0,0,0,8.53223-1.58007q4.18652-1.57911,5.37207-3.63379v4.1875H359.8862V53.92869a34.18187,34.18187,0,0,0-1.02637-8.09765A24.89741,24.89741,0,0,0,356.52878,39.82713Zm-9.75586,17.459a9.72234,9.72234,0,0,1-5.60937,5.64844,11.482,11.482,0,0,1-4.30567.79,11.77912,11.77912,0,0,1-4.34473-.79,9.47706,9.47706,0,0,1-3.39746-2.21191,10.73479,10.73479,0,0,1-2.21191-3.43653,11.19714,11.19714,0,0,1-.8291-4.30566,10.404,10.404,0,0,1,10.74414-10.74414,11.09888,11.09888,0,0,1,4.34473.83008,10.48384,10.48384,0,0,1,3.39746,2.251,10.01226,10.01226,0,0,1,2.21191,3.39747,11.40628,11.40628,0,0,1,.79,4.26562A11.70918,11.70918,0,0,1,346.77292,57.28611Z" fill="#fff"/><path d="M385.44284,31.61131a35.64645,35.64645,0,0,0-4.582.27637,24.6761,24.6761,0,0,0-4.8584.9873,20.275,20.275,0,0,0-4.34472,2.09375,12.62161,12.62161,0,0,0-3.75293,3.51563,19.60148,19.60148,0,0,0-2.48829,5.37207A26.59089,26.59089,0,0,0,364.31,51.32127l.2373,22.98926h12.24512V53.29686a17,17,0,0,1,.27637-3.47657,6.81273,6.81273,0,0,1,1.14551-2.48828,4.901,4.901,0,0,1,2.64648-1.77734,27.58976,27.58976,0,0,1,4.74024-.9082,56.35816,56.35816,0,0,1,7.46582-.27735V31.80858q-.791,0-3.31836-.07911Q387.21872,31.65185,385.44284,31.61131Z" fill="#fff"/><path d="M429.48386,65.46287q-1.42236-2.291-2.09375-3.47656-.67091-1.18506-1.06641-2.05371a5.63628,5.63628,0,0,1-2.64648,1.85644,6.03059,6.03059,0,0,1-3.35742.35547,3.00769,3.00769,0,0,1-2.37012-1.65918,10.81274,10.81274,0,0,1-.55274-4.50293V42.39451h10.98145V31.09764l-11.06055-.0791.15821-16.11621-12.00782,7.97949v8.53125h-8.29492l-.1582,10.82324,8.13672.0791v18.249q.07762,7.50585,5.76757,11.45507a15.05494,15.05494,0,0,0,8.68946,2.52832,22.12494,22.12494,0,0,0,7.86035-1.38281q3.67383-1.38135,4.543-3.51562Q430.90476,67.75388,429.48386,65.46287Z" fill="#fff"/><path d="M257.312,88.54686h-4.04052l-4.71778,5.75293V88.54686h-3.34375v14.71h3.38379V98.89744l.71631-.876,4.06055,5.23535,4.061-.04-5.77246-7.48438Z" fill="#fff"/><polygon points="271.584 97.962 265.672 88.587 261.89 88.587 261.89 103.217 265.155 103.217 265.235 93.922 271.027 103.217 274.829 103.217 274.829 88.587 271.544 88.587 271.584 97.962" fill="#fff"/><path d="M288.26413,96.90721a3.32455,3.32455,0,0,1-.82617,2.4082,2.94024,2.94024,0,0,1-2.21973.85645,2.83432,2.83432,0,0,1-2.16992-.93555,3.43489,3.43489,0,0,1-.77539-2.3291V88.54686h-3.36426v8.43945a6.40408,6.40408,0,0,0,1.77149,4.67773,6.14494,6.14494,0,0,0,4.59765,1.81153,6.51519,6.51519,0,0,0,3.29492-.82617,5.73891,5.73891,0,0,0,2.23926-2.29883,6.96393,6.96393,0,0,0,.7959-3.36426V88.54686h-3.34375Z" fill="#fff"/><path d="M306.228,95.48436a5.77126,5.77126,0,0,0-1.57227-.77637,10.99347,10.99347,0,0,0-1.9414-.4082q-3.02492-.29883-2.98536-1.49317a.65711.65711,0,0,1,.01954-.27832,1.296,1.296,0,0,1,.12011-.27929,1.2664,1.2664,0,0,1,.209-.26856,1.60179,1.60179,0,0,1,.30859-.23828,2.26711,2.26711,0,0,1,.3877-.18945,2.80626,2.80626,0,0,1,.47754-.12891,3.114,3.114,0,0,1,.56738-.0498,3.66034,3.66034,0,0,1,.876.09863,2.92241,2.92241,0,0,1,.65722.23926,2.1761,2.1761,0,0,1,.46778.33886,3.159,3.159,0,0,1,.32812.35743,1.59,1.59,0,0,1,.19922.35839q.07909.19923.09961.249a1.02693,1.02693,0,0,1,.03906.12988,30.757,30.757,0,0,0,3.14551-1.23438,5.34973,5.34973,0,0,0-.916-1.60253,4.88311,4.88311,0,0,0-1.16406-1.04493,5.25578,5.25578,0,0,0-1.34375-.56738,7.68515,7.68515,0,0,0-1.27344-.25879q-.51855-.0498-1.15527-.0498a6.17938,6.17938,0,0,0-4.12988,1.26367,4.13211,4.13211,0,0,0-1.60254,3.35449,3.67238,3.67238,0,0,0,.209,1.25391,3.25881,3.25881,0,0,0,.53809.97558,3.52716,3.52716,0,0,0,.82519.7168,6.66868,6.66868,0,0,0,.96582.51758,7.8509,7.8509,0,0,0,1.06543.35742q.59619.15968,1.02442.22949.42772.07032.94531.12891a5.249,5.249,0,0,1,1.98047.57715,1.27714,1.27714,0,0,1,.64746,1.15527q0,1.35351-2.34863,1.27344a5.3601,5.3601,0,0,1-1.00586-.15918,2.55831,2.55831,0,0,1-.73633-.3086,3.05955,3.05955,0,0,1-.49707-.39843,1.45752,1.45752,0,0,1-.30859-.42774c-.06641-.1455-.12012-.27539-.15918-.38769a2.49345,2.49345,0,0,1-.09961-.38867q-1.09571.438-3.4043,1.21484a4.81866,4.81866,0,0,0,3.20508,3.52246,9.28538,9.28538,0,0,0,3.14453.53809,8.61119,8.61119,0,0,0,2.39941-.3086,5.27134,5.27134,0,0,0,1.791-.876,3.84682,3.84682,0,0,0,1.125-1.41309,4.471,4.471,0,0,0,.39746-1.9209,4.78686,4.78686,0,0,0-.39746-2.03027A3.34728,3.34728,0,0,0,306.228,95.48436Z" fill="#fff"/><polygon points="311.234 91.413 315.693 91.413 315.693 103.297 319.176 103.297 319.176 91.413 323.635 91.413 323.635 88.507 311.234 88.507 311.234 91.413" fill="#fff"/><polygon points="340.913 93.364 336.712 88.468 333.428 88.468 333.408 103.276 336.732 103.237 336.772 93.145 340.873 97.962 345.112 93.265 345.132 103.237 348.416 103.257 348.476 88.428 345.232 88.428 340.913 93.364" fill="#fff"/><path d="M357.65183,88.46776l-5.05567,14.749h3.4834l.93555-2.62695,5.47363.03906.81641,2.58789H366.768L362.0112,88.52733Zm-.05957,9.27539,2.3291-6.11036,2.03027,6.11036Z" fill="#fff"/><path d="M382.6528,96.25a4.99666,4.99666,0,0,0,.81641-2.74609,4.48983,4.48983,0,0,0-1.63281-3.74219,6.71311,6.71311,0,0,0-4.29883-1.29394l-6.668.03906V103.3369h3.46289V98.5l2.56836-.02051,3.32422,4.85743h3.84082l-3.62207-5.375A3.97516,3.97516,0,0,0,382.6528,96.25Zm-3.39355-1.14453a2.74678,2.74678,0,0,1-1.86133.62695l-3.085.04-.04-4.39843,2.92578-.04a3.30475,3.30475,0,0,1,1.99121.57714,1.85921,1.85921,0,0,1,.7959,1.59278A2.02146,2.02146,0,0,1,379.25925,95.10545Z" fill="#fff"/><path d="M400.5073,88.54686h-4.04l-4.71778,5.75293V88.54686h-3.34375v14.71h3.38379V98.89744l.71582-.876,4.06055,5.23535,4.06152-.04-5.77246-7.48438Z" fill="#fff"/><polygon points="408.35 100.41 408.37 97.285 415.715 97.266 415.715 94.16 408.35 94.16 408.35 91.254 415.715 91.274 415.715 88.447 405.026 88.447 405.026 103.217 415.775 103.217 415.754 100.45 408.35 100.41" fill="#fff"/><polygon points="420.034 88.507 420.034 91.413 424.493 91.413 424.493 103.297 427.976 103.297 427.976 91.413 432.435 91.413 432.435 88.507 420.034 88.507" fill="#fff"/></svg>